<?xml version="1.0" encoding="utf-8"?>
<!-- Generator: Adobe Illustrator 24.0.0, SVG Export Plug-In . SVG Version: 6.00 Build 0)  -->
<svg version="1.1" id="Layer_1" xmlns="http://www.w3.org/2000/svg" xmlns:xlink="http://www.w3.org/1999/xlink" x="0px" y="0px"
	 viewBox="0 0 954.69 954.69" style="enable-background:new 0 0 954.69 954.69;" xml:space="preserve">
<style type="text/css">
	.st0{fill:#F05A28;}
	.st1{fill:#FFFFFF;}
</style>
<g>
	
		<ellipse transform="matrix(0.7071 -0.7071 0.7071 0.7071 -198.1545 477.2765)" class="st0" cx="477.05" cy="477.83" rx="460.38" ry="460.38"/>
	<path class="st1" d="M477.35,30.66c60.28,0,118.76,11.83,173.88,35.12c53.19,22.47,100.9,54.68,141.92,95.72
		c41.09,40.96,73.26,88.75,95.77,141.95c23.31,55.03,35.09,113.51,35.09,173.85c0,60.28-11.78,118.76-35.09,173.85
		c-22.51,53.21-54.68,100.97-95.77,141.97c-41.02,41.07-88.73,73.28-141.92,95.75c-55.11,23.3-113.6,35.15-173.88,35.15
		c-60.34,0-118.73-11.84-173.88-35.15c-53.19-22.47-100.97-54.68-141.98-95.75c-41.03-40.99-73.27-88.76-95.67-141.97
		C42.45,596.07,30.7,537.58,30.7,477.3c0-60.34,11.75-118.83,35.12-173.85c22.4-53.21,54.65-100.99,95.67-141.95
		c41.01-41.04,88.79-73.25,141.98-95.72C358.62,42.49,417.01,30.66,477.35,30.66 M477.35,1.43c-64.14,0-126.48,12.59-185.26,37.42
		C235.41,62.8,184.52,97.11,140.83,140.83c-43.79,43.7-78.1,94.62-101.95,151.26C14.06,350.56,1.47,412.89,1.47,477.3
		c0,64.36,12.59,126.7,37.44,185.26c23.82,56.57,58.11,107.47,101.93,151.23c43.64,43.74,94.56,78.05,151.26,102.01
		c58.81,24.86,121.15,37.46,185.24,37.46c64.12,0,126.46-12.6,185.26-37.48c56.62-23.9,107.51-58.23,151.21-102.01
		c43.66-43.57,77.98-94.46,102-151.25c24.82-58.65,37.39-120.97,37.39-185.22c0-64.3-12.57-126.63-37.39-185.26
		c-24.02-56.79-58.35-107.7-102.05-151.25c-43.7-43.72-94.55-78.03-151.18-101.95C603.86,14.03,541.54,1.43,477.35,1.43"/>
	<path class="st1" d="M362.01,327.27l198.77-80.04c0,0,16.68-8.87,24.88-3.53c8.38,5.36,3.15,21.57,3.15,21.57l-49.82,211.12
		c0,0-5.7,23.43-12.34,24.02c-9.01,0.79-16.47-9.99-16.47-9.99l-42.52-55.33c0,0-10.88,12.73-18.9,24.72
		c-7.99,12.11-12.54,25.96-12.16,42.9c0.39,16.94,5.21,39.58,16.81,55.52c11.66,15.94,97.98,134.25,97.98,134.25l-55.96,44.62
		c0,0-89.36-120.58-104.06-144.96c-8.9-14.83-15.53-34.36-17.86-43.76c-3.88-15.47-6.53-23.76-6.45-46.98
		c0.03-20.55,1.99-40.1,15.41-66.45c10.35-20.32,30.13-45.86,30.13-45.86l-58.37-35.1c0,0-11.62-5.24-11.39-13.72
		C342.98,333.3,362.01,327.27,362.01,327.27"/>
	<path class="st1" d="M477.45,777.08c-9.98,0-19.81-0.47-29.45-1.42l1.22-12.47c9.26,0.91,18.74,1.35,28.15,1.35l0.2,10.81v1.72
		H477.45z M506.98,775.63l-1.23-12.47c9.35-0.91,18.74-2.3,27.89-4.12l2.44,12.3C526.53,773.24,516.74,774.68,506.98,775.63
		 M418.9,771.38c-9.57-1.88-19.17-4.29-28.54-7.13l3.63-12c8.98,2.74,18.18,5.02,27.34,6.85L418.9,771.38z M564.62,764.16l-3.65-12
		c8.94-2.71,17.85-5.92,26.53-9.51l4.8,11.57C583.26,757.99,573.95,761.32,564.62,764.16 M362.67,754.33l-1.98-0.83
		c-8.36-3.53-16.66-7.48-24.63-11.75l5.91-11.04c7.64,4.08,15.57,7.87,23.59,11.27l1.87,0.78L362.67,754.33z M618.89,741.62
		l-5.92-11.03c8.27-4.43,16.4-9.31,24.15-14.51l6.98,10.4C636.02,731.91,627.52,737.01,618.89,741.62 M310.85,726.63
		c-8.12-5.42-16.08-11.34-23.63-17.55l7.97-9.67c7.23,5.96,14.85,11.6,22.61,16.81L310.85,726.63z M667.71,708.91l-7.97-9.67
		c7.15-5.89,14.12-12.23,20.73-18.82l9,8.71l-0.14,0.14C682.44,696.15,675.16,702.76,667.71,708.91 M265.44,689.32l-0.05-0.05
		c-6.93-6.92-13.56-14.23-19.74-21.71l9.68-7.96c5.91,7.17,12.27,14.19,18.91,20.82L265.44,689.32z M709.21,667.34l-9.68-7.96
		c5.94-7.22,11.6-14.81,16.8-22.62l10.41,6.94C721.3,651.85,715.41,659.8,709.21,667.34 M228.09,643.97
		c-5.43-8.12-10.52-16.59-15.13-25.22l11.05-5.91c4.42,8.25,9.3,16.4,14.49,24.16L228.09,643.97z M741.84,618.46l-11.04-5.89
		c4.03-7.57,7.81-15.46,11.17-23.43l0.87-2.06l11.57,4.78l-0.91,2.18C750,602.35,746.07,610.55,741.84,618.46 M200.39,592.15
		c-3.77-9.06-7.11-18.36-9.95-27.7l12-3.62c2.72,8.92,5.91,17.85,9.51,26.51L200.39,592.15z M764.33,564.17l-12-3.62
		c2.72-8.98,5.01-18.19,6.81-27.36l12.28,2.44C769.56,545.19,767.16,554.8,764.33,564.17 M183.32,535.91
		c-1.9-9.55-3.33-19.35-4.29-29.11l12.47-1.2c0.92,9.35,2.29,18.73,4.1,27.89L183.32,535.91z M775.68,506.51l-12.47-1.2
		c0.88-9.21,1.32-18.62,1.32-27.94l10.81-0.2l1.7,0.01C777.07,487.11,776.6,496.89,775.68,506.51 M177.63,477.42v-0.04
		c0-9.79,0.46-19.65,1.4-29.32l12.47,1.2c-0.9,9.27-1.35,18.73-1.35,28.12L177.63,477.42z M763.17,448.97
		c-0.91-9.32-2.29-18.7-4.12-27.88l12.28-2.43c1.9,9.57,3.35,19.38,4.3,29.1L763.17,448.97z M195.59,421.37l-12.3-2.42
		c1.89-9.57,4.28-19.17,7.12-28.56l11.99,3.64C199.69,403.02,197.4,412.21,195.59,421.37 M752.21,393.76
		c-2.71-8.92-5.92-17.84-9.52-26.51l11.58-4.81c3.76,9.06,7.1,18.36,9.93,27.69L752.21,393.76z M211.89,367.5l-11.56-4.81l0.84-2.03
		c3.54-8.34,7.48-16.61,11.74-24.55l11.04,5.91c-4.06,7.59-7.84,15.52-11.24,23.53L211.89,367.5z M730.62,341.76
		c-4.4-8.22-9.29-16.35-14.53-24.15l10.41-6.99c5.46,8.14,10.57,16.62,15.17,25.22L730.62,341.76z M238.46,317.86l-10.41-6.97
		c5.44-8.13,11.35-16.06,17.55-23.61l9.68,7.98C249.32,302.47,243.66,310.1,238.46,317.86 M699.27,295.01
		c-5.89-7.13-12.22-14.11-18.81-20.73l8.71-9l0.15,0.15c6.88,6.9,13.47,14.17,19.61,21.62L699.27,295.01z M274.01,274.57l-8.65-9.06
		l0.09-0.08c6.89-6.91,14.17-13.53,21.67-19.71l7.96,9.67c-7.17,5.92-14.17,12.27-20.78,18.89L274.01,274.57z M659.41,255.21
		c-7.23-5.96-14.83-11.62-22.61-16.81l6.96-10.41c8.11,5.43,16.06,11.32,23.62,17.53L659.41,255.21z M317.69,238.56l-6.99-10.4
		c8.13-5.44,16.61-10.55,25.22-15.16l5.91,11.03C333.59,228.46,325.45,233.35,317.69,238.56 M612.62,223.91
		c-7.6-4.07-15.51-7.84-23.47-11.22l-2.01-0.86l4.81-11.57l2.08,0.88c8.32,3.52,16.57,7.45,24.5,11.71L612.62,223.91z M367.3,211.96
		l-4.8-11.55c9.04-3.76,18.36-7.09,27.68-9.94l3.65,11.98C384.9,205.17,375.97,208.36,367.3,211.96 M560.6,202.35
		c-8.95-2.69-18.14-4.99-27.34-6.82l2.43-12.28c9.59,1.89,19.19,4.29,28.54,7.11L560.6,202.35z M421.18,195.6l-2.45-12.29
		c9.57-1.89,19.36-3.33,29.12-4.28l1.2,12.47C439.71,192.4,430.32,193.78,421.18,195.6 M505.38,191.47
		c-9.21-0.88-18.63-1.34-28.01-1.34l-0.16-12.52h0.16c9.77,0,19.61,0.46,29.21,1.39L505.38,191.47z"/>
	<polygon class="st1" points="150.2,632.29 160.99,654.57 154.8,672.48 132.51,683.32 114.49,677.11 98.33,643.79 104.59,625.81 
		119.43,618.61 129.53,639.42 122.05,643.04 120.77,646.57 126.15,657.67 129.77,658.92 137.34,655.26 138.5,651.67 127.76,629.51 
		134.05,611.52 156.03,600.86 173.99,607.07 190.15,640.4 183.93,658.35 169.41,665.39 159.31,644.59 166.39,641.17 167.65,637.53 
		162.28,626.44 158.77,625.23 151.51,628.75 	"/>
	<polygon class="st1" points="90.91,557.83 91.5,560.47 72.98,564.63 65.34,530.65 83.87,526.48 85.52,533.88 133.92,538.83 
		132.97,534.6 151.5,530.44 161.3,574.08 142.78,578.24 141.98,574.71 100.33,599.78 101.81,606.37 83.29,610.54 75.86,577.45 
		94.38,573.28 95,576.05 120.33,560.74 	"/>
	<path class="st1" d="M77.02,509.6l-13.41-13.54l0.25-37.05l13.61-13.33l57.17,0.41l13.31,13.52l-0.25,37.05l-13.51,13.31
		L77.02,509.6z M85.5,468.87l-2.75,2.6l-0.08,12.31l2.7,2.74l40.8,0.29l2.65-2.71l0.08-12.32l-2.6-2.65L85.5,468.87z"/>
	<polygon class="st1" points="90.17,400.52 135.31,410.06 138.44,395.27 133.51,394.21 137.42,375.73 160.92,380.72 148.05,441.56 
		129.48,437.63 130.53,432.69 85.39,423.13 84.34,428.07 65.77,424.14 72.65,391.64 91.22,395.57 	"/>
	<polygon class="st1" points="134.78,288.56 127.1,305.79 122.58,303.78 120.52,308.38 162.67,327.18 164.72,322.56 182.06,330.28 
		168.5,360.73 151.16,352.99 153.26,348.28 111.1,329.5 109.02,334.21 113.54,336.22 105.85,353.45 84,343.72 112.93,278.78 	"/>
	<path class="st1" d="M162.87,207.94l14.99,11.63l-2.6,3.36l47.77,13.67l3.11-4l14.99,11.64l-19.8,25.54l-15-11.63l1.68-2.18
		l-3.7-1.32l-13.67,17.62l2.14,3.33l1.68-2.16l15,11.63l-19.74,25.46l-15.01-11.62l3.11-4l-25.15-42.88l-2.23,2.88l-14.99-11.63
		L162.87,207.94z M181.4,257.84l6.56-8.45l-13.81-3.94L181.4,257.84z"/>
	<polygon class="st1" points="252.22,193.92 233,209.49 214.13,207.53 198.54,188.26 200.47,169.32 229.26,146 248.19,148.04 
		258.57,160.86 240.59,175.41 235.37,168.95 231.63,168.5 222.07,176.26 221.66,180.07 226.95,186.63 230.71,186.92 249.86,171.44 
		268.81,173.49 284.18,192.48 282.2,211.36 253.4,234.69 234.52,232.69 224.35,220.15 242.32,205.6 247.27,211.72 251.1,212.11 
		260.67,204.36 261.06,200.68 255.98,194.39 	"/>
	<polygon class="st1" points="331.75,114.26 314.89,122.76 312.67,118.34 308.15,120.62 328.93,161.82 333.43,159.55 341.97,176.49 
		312.24,191.5 303.7,174.54 308.3,172.23 287.51,131.04 282.92,133.35 285.14,137.77 268.29,146.26 257.51,124.9 320.98,92.89 	"/>
	<polygon class="st1" points="424.49,137.17 414.6,153.43 378.59,162.15 362.39,152.29 350.22,102.03 345.33,103.21 340.85,84.76 
		373.14,76.95 377.62,95.4 372.7,96.59 382.94,138.88 386.2,140.78 398.17,137.89 400.11,134.73 389.88,92.42 384.97,93.6 
		380.51,75.17 412.8,67.36 417.26,85.8 412.34,86.98 	"/>
	<path class="st1" d="M435.66,63.91l52.09-0.18l13.47,13.48l0.2,57.16l-13.39,13.46L435.94,148l-0.06-18.99l5.05-0.02l-0.15-46.14
		l-5.05,0.02L435.66,63.91z M464.04,128.92l11.52-0.04l2.7-2.62l-0.12-40.81l-2.75-2.7l-11.5,0.03L464.04,128.92z"/>
	<polygon class="st1" points="537.45,133.98 551.93,136.73 552.55,133.47 571.2,137.03 567.01,158.95 506.22,147.32 509.78,128.68 
		514.74,129.63 523.4,84.32 518.45,83.36 522.02,64.73 582.81,76.34 578.63,98.15 559.99,94.61 560.6,91.43 546.12,88.65 
		543.57,101.95 546.94,102.59 547.55,99.42 566.1,102.95 561.3,128.06 542.75,124.51 543.39,121.24 540,120.6 	"/>
	<polygon class="st1" points="617.53,178.96 612,135.37 604.47,152.47 609.08,154.51 601.45,171.88 571.05,158.5 578.69,141.15 
		583.3,143.17 601.88,100.93 597.27,98.9 604.89,81.53 629.94,92.54 635.58,137.14 643.47,119.23 638.86,117.18 646.47,99.82 
		676.89,113.2 669.26,130.55 664.62,128.53 646.06,170.75 650.68,172.79 643.04,190.16 	"/>
	<polygon class="st1" points="739.1,186.77 724.06,175.36 727.03,171.44 723.03,168.36 695.14,205.14 699.16,208.18 687.69,223.31 
		661.14,203.19 672.62,188.04 676.71,191.16 704.6,154.4 700.48,151.3 697.51,155.24 682.47,143.82 696.92,124.77 753.55,167.71 	
		"/>
	<polygon class="st1" points="727.09,261.97 704.38,237.75 718.22,224.76 721.68,228.45 755.34,196.89 751.89,193.21 765.73,180.22 
		788.45,204.45 774.6,217.44 771.15,213.75 737.49,245.31 740.95,248.98 	"/>
	<polygon class="st1" points="791.28,304.59 795.31,312.09 800.62,309.21 804.73,316.82 792.41,323.45 778.44,297.53 785.45,293.75 
		787.05,296.73 813.07,282.71 811.49,279.79 818.6,275.96 825.89,289.52 818.69,293.4 817.19,290.62 	"/>
	<path class="st1" d="M799.19,338.85l-4.65-11.03l7.24-3.03l0.64,1.51l29.78-5.15l-0.76-1.81l7.51-3.23l5.25,12.48l-7.44,3.12
		l-0.59-1.4l-24.23,18.36l0.62,1.5l-7.33,3.09l-4.66-11.08l7.33-3.09l0.78,1.83l2.04-1.55l-2.47-5.88l-2.54,0.35l0.79,1.93
		L799.19,338.85z M815.76,335.61l5.82-4.33l-7.19,1.05L815.76,335.61z"/>
	<polygon class="st1" points="826.51,374.11 828.67,382.69 823.3,384.03 825.82,394.11 836.49,391.43 832.86,376.94 835.86,371.76 
		853.71,367.29 858.61,370.38 863.33,389.21 859.98,394.87 851.48,396.99 849.27,388.13 854.35,386.85 851.89,376.94 841.91,379.44 
		845.56,393.99 842.53,399.06 824.47,403.58 819.25,400.41 814.68,382.13 818.18,376.19 	"/>
	<polygon class="st1" points="824.71,431.52 822.46,416.52 830.33,415.34 830.77,418.31 859.95,413.94 859.53,411.08 854.12,411.9 
		853.04,404.66 866.26,402.68 870.61,431.8 857.38,433.77 856.3,426.52 861.71,425.71 861.29,422.88 832.11,427.22 832.58,430.34 	
		"/>
	<polygon class="st1" points="827.29,465.02 826.6,451.66 831.31,446.55 863.98,444.88 863.86,442.41 871.7,442 872.32,454.22 
		864.37,454.62 864.26,452.55 834.87,454.07 835.26,461.85 864.66,460.33 864.56,458.12 872.5,457.71 873.13,469.95 865.18,470.36 
		865.07,467.99 832.49,469.67 	"/>
	<path class="st1" d="M826.77,502.85l1.17-25.09l7.88,0.32l-0.15,3.38l29.51,1.37l0.17-3.38l8.17,0.37l-1.17,25.25l-4.63,4.83
		l-36.62-1.7L826.77,502.85z M864.4,500.18l0.39-8.45l-29.41-1.37l-0.39,8.46L864.4,500.18z"/>
	<polygon class="st1" points="821.84,542.54 826.17,513.19 834.05,514.35 833.58,517.55 862.82,521.86 863.34,518.44 871.3,519.63 
		866.94,549.19 853.94,547.28 855.22,538.63 860.13,539.36 861.41,530.65 851.04,529.12 850.03,535.88 842.1,534.71 843.1,527.96 
		832.27,526.35 830.98,535.18 836.95,536.06 835.68,544.6 	"/>
	<polygon class="st1" points="817.27,562 820.94,547.49 828.95,549.52 828.1,552.8 856.6,560.05 857.46,556.64 865.17,558.6 
		861.91,571.4 841.43,573.02 852.75,575.88 853.55,572.78 861.09,574.69 857.25,589.77 849.53,587.81 850.33,584.71 821.84,577.46 
		821.04,580.58 813.06,578.56 816.08,566.64 840.48,565.03 825.82,561.33 825.14,563.99 	"/>
	<polygon class="st1" points="804.15,603.81 809.38,589.57 816.84,592.31 815.82,595.09 843.51,605.26 844.51,602.55 839.36,600.66 
		841.89,593.78 854.46,598.38 844.33,626.04 831.76,621.44 834.29,614.55 839.43,616.43 840.42,613.72 812.71,603.57 811.62,606.54 
			"/>
	<polygon class="st1" points="811.86,621.14 808.01,629.11 803.04,626.73 798.53,636.07 808.46,640.83 814.92,627.38 820.56,625.31 
		837.12,633.28 838.93,638.78 830.51,656.27 824.31,658.48 816.44,654.7 820.4,646.47 825.12,648.72 829.55,639.53 820.29,635.08 
		813.81,648.59 808.23,650.56 791.44,642.49 789.46,636.73 797.63,619.74 804.13,617.42 	"/>
	<polygon class="st1" points="816.77,662.86 825.95,668.16 820.21,678.13 811.09,672.89 807.92,661.23 815.27,665.45 	"/>
	<polygon class="st1" points="751.33,695.39 759.49,684.8 766.38,683.99 792.32,703.93 793.83,701.97 800.05,706.75 792.58,716.46 
		786.27,711.6 787.55,709.96 764.2,692 759.46,698.16 782.79,716.11 784.13,714.37 790.45,719.23 782.98,728.93 776.66,724.07 
		778.12,722.2 752.27,702.32 	"/>
	<polygon class="st1" points="733.63,716.03 743.88,705.15 749.87,710.8 747.55,713.26 768.97,733.42 771.35,730.86 777.15,736.31 
		768.09,745.93 749.41,737.39 757.9,745.4 760.12,743.05 765.79,748.4 755.11,759.72 749.31,754.29 751.53,751.94 730.11,731.78 
		727.92,734.13 721.91,728.48 730.34,719.52 752.46,729.94 741.44,719.58 739.55,721.59 	"/>
	<polygon class="st1" points="712.21,747.92 706.88,742.02 718.36,731.66 723.68,737.59 721.22,739.81 741.01,761.78 743.44,759.57 
		748.85,765.58 737.41,775.9 731.94,769.8 734.31,767.65 721.93,753.92 714.61,745.78 	"/>
	<path class="st1" d="M700.03,747.97l5.13,0.67l22.91,29.72l-0.74,6.13l-14.84,11.45l-5.97-0.73l-22.68-29.39l0.73-5.91
		L700.03,747.97z M711.11,786.66l7.63-5.89l-18.02-23.36l-7.64,5.89L711.11,786.66z"/>
	<polygon class="st1" points="664.07,773.7 676.75,765.78 681.1,772.78 678.24,774.55 693.79,799.49 696.77,797.64 700.98,804.39 
		689.78,811.39 673.87,798.37 680.05,808.26 682.79,806.57 686.91,813.18 673.7,821.42 669.49,814.66 672.21,812.97 656.64,788.03 
		653.92,789.74 649.56,782.74 659.99,776.24 678.72,791.94 670.71,779.11 668.36,780.59 	"/>
	<path class="st1" d="M603.89,804.12l23.17-9.68l3.1,7.26l-3.14,1.31l11.4,27.29l3.12-1.33l3.15,7.57l-23.32,9.74l-6.33-2.14
		l-14.13-33.84L603.89,804.12z M622.38,836.99l7.81-3.26l-11.35-27.17l-7.81,3.26L622.38,836.99z"/>
	<polygon class="st1" points="565.83,816.62 594.22,808.02 596.53,815.61 593.44,816.56 602.02,844.86 605.31,843.87 607.64,851.59 
		579.02,860.25 575.22,847.68 583.59,845.13 585.03,849.88 593.44,847.33 590.42,837.29 583.87,839.27 581.55,831.6 588.1,829.62 
		584.92,819.15 576.39,821.74 578.13,827.52 569.88,830.02 	"/>
	<polygon class="st1" points="550.36,828.13 542.01,829.78 543.16,835.69 534.7,837.37 531.99,823.64 560.89,817.94 562.43,825.74 
		559.11,826.41 564.83,855.41 568.09,854.77 569.66,862.68 554.54,865.65 552.95,857.63 556.05,857.02 	"/>
	<path class="st1" d="M489.77,827.34l15.67-0.61l0.31,7.99l-3.14,0.14l1.15,29.32l3.28-0.12l0.31,8.21l-23.5,0.94l-4.56-4.29
		l-0.68-17.13l4.44-4.93l10.78-0.42l-0.5-11.2l-3.27,0.12L489.77,827.34z M488.65,864.88l5.97-0.24l-0.39-9.97l-5.98,0.23
		L488.65,864.88z"/>
	<path class="st1" d="M469.14,827.7l3.46,3.87l-2.06,37.46l-4.56,4.16l-18.71-1.02l-4.05-4.46l2.04-37.07l4.4-4L469.14,827.7z
		 M452.28,864.25l9.63,0.52l1.63-29.47l-9.64-0.51L452.28,864.25z"/>
	<polygon class="st1" points="426.49,832.01 418.07,830.73 417.15,836.7 408.63,835.39 410.73,821.57 439.85,825.98 438.64,833.84 
		435.3,833.35 430.85,862.58 434.14,863.07 432.94,871.06 417.71,868.73 418.94,860.65 422.06,861.11 	"/>
	<polygon class="st1" points="388.7,824.59 390.53,816.84 405.58,820.37 403.76,828.12 400.52,827.35 393.75,856.12 396.94,856.89 
		395.09,864.74 380.1,861.21 381.97,853.25 385.1,853.99 389.32,835.97 391.84,825.32 	"/>
	<polygon class="st1" points="363.97,808.92 378.42,813.56 375.99,821.13 373.13,820.22 364.11,848.3 366.86,849.18 368.52,843.99 
		375.5,846.23 371.41,858.95 343.38,849.94 347.46,837.2 354.44,839.45 352.77,844.68 355.5,845.55 364.54,817.46 361.54,816.49 	
		"/>
	<polygon class="st1" points="325.1,793.18 352.31,805.04 349.14,812.33 346.18,811.03 334.38,838.13 337.55,839.53 334.33,846.91 
		306.9,834.99 312.16,822.92 320.17,826.41 318.19,830.96 326.27,834.48 330.44,824.86 324.19,822.15 327.38,814.79 333.64,817.52 
		338.02,807.48 329.83,803.93 327.44,809.45 319.51,806.01 	"/>
	<polygon class="st1" points="296.22,795.75 288.43,791.41 294.18,781.06 299.79,779.46 316.9,788.96 318.55,794.81 300.29,827.7 
		295.19,829.06 277.64,819.32 276.02,813.75 280.29,806.06 288.02,810.37 285.76,814.46 294.78,819.47 309.09,793.73 300.12,788.75 
			"/>
	<polygon class="st1" points="279.51,766.36 291.79,774.88 287.1,781.65 284.33,779.72 267.57,803.88 270.45,805.87 265.92,812.4 
		255.07,804.9 260.74,785.12 254.09,794.73 256.72,796.56 252.29,802.97 239.5,794.08 244.02,787.55 246.67,789.37 263.41,765.23 
		260.77,763.39 265.45,756.61 275.57,763.63 268.53,787.03 277.16,774.61 274.88,773.04 	"/>
	<polygon class="st1" points="244.77,749.89 249.81,743.74 261.75,753.55 256.71,759.7 254.13,757.59 235.35,780.42 237.88,782.49 
		232.75,788.72 220.85,778.94 226.06,772.63 228.54,774.67 240.29,760.37 247.24,751.93 	"/>
	<polygon class="st1" points="220.81,738.76 214.4,732.6 222.59,724.05 228.42,723.92 242.54,737.48 242.66,743.55 216.59,770.68 
		211.32,770.71 196.85,756.8 196.68,751.01 202.78,744.68 209.17,750.81 205.93,754.19 213.38,761.34 233.77,740.1 226.37,732.97 	
		"/>
	<path class="st1" d="M219.5,714.69l-0.39,5.16l-28.4,24.52l-6.17-0.42l-12.23-14.19l0.4-6l28.11-24.25l5.92,0.38L219.5,714.69z
		 M181.48,727.89l6.31,7.29l22.32-19.27l-6.29-7.29L181.48,727.89z"/>
</g>
</svg>
