<?xml version="1.0" encoding="utf-8"?>
<!-- Generator: Adobe Illustrator 24.0.0, SVG Export Plug-In . SVG Version: 6.00 Build 0)  -->
<svg version="1.1" id="Layer_1" xmlns="http://www.w3.org/2000/svg" xmlns:xlink="http://www.w3.org/1999/xlink" x="0px" y="0px"
	 viewBox="0 0 797 127" style="enable-background:new 0 0 797 127;" xml:space="preserve">
<style type="text/css">
	.st0{fill:#FFFFFF;}
</style>
<g>
	<path class="st0" d="M18.57,59.25v2.45c0,7.82,2.22,12.85,11.09,12.85c5.14,0,10.04-3.27,10.04-10.28
		c0-7.59-3.85-10.39-14.95-14.25C9.81,44.89,2.92,38.7,2.92,24.8c0-16.23,9.93-24.52,25.81-24.52c14.95,0,25.81,6.42,25.81,22.42
		v2.34H38.42c0-7.82-2.69-12.38-9.11-12.38c-7.59,0-9.58,4.79-9.58,9.69c0,5.14,1.52,8.29,8.64,11.33l12.96,5.6
		c12.61,5.49,15.88,11.91,15.88,22.07c0,17.64-10.74,25.58-28.96,25.58c-19.04,0-26.51-8.88-26.51-24.29v-3.39H18.57z"/>
	<polygon class="st0" points="78.12,1.91 89.92,63.57 90.27,63.57 102.65,1.91 120.05,1.91 100.9,85.29 79.29,85.29 60.14,1.91 	"/>
	<path class="st0" d="M152.86,0.28c25.23,0,28.38,17.98,28.38,43.32c0,25.34-3.15,43.33-28.38,43.33
		c-25.23,0-28.38-17.99-28.38-43.33C124.48,18.26,127.64,0.28,152.86,0.28 M152.86,74.55c9.93,0,11.56-8.53,11.56-30.95
		c0-22.31-1.63-30.95-11.56-30.95c-9.93,0-11.56,8.64-11.56,30.95C141.3,66.03,142.93,74.55,152.86,74.55"/>
	<polygon class="st0" points="191.16,85.29 191.16,1.91 207.98,1.91 207.98,71.51 237.76,71.51 237.76,85.29 	"/>
	<polygon class="st0" points="285.41,1.91 285.41,15.69 267.19,15.69 267.19,85.29 250.37,85.29 250.37,15.69 232.16,15.69 
		232.16,1.91 	"/>
	<path class="st0" d="M302.45,1.91h20.79l22.07,83.38H327.8l-3.85-17.63h-22.19l-3.85,17.63h-17.52L302.45,1.91z M304.67,53.88
		h16.35l-8.06-37.49h-0.24L304.67,53.88z"/>
	<path class="st0" d="M364.7,59.25v2.45c0,7.82,2.22,12.85,11.09,12.85c5.14,0,10.04-3.27,10.04-10.28
		c0-7.59-3.85-10.39-14.95-14.25c-14.95-5.14-21.84-11.33-21.84-25.22c0-16.23,9.93-24.52,25.81-24.52
		c14.95,0,25.81,6.42,25.81,22.42v2.34h-16.12c0-7.82-2.69-12.38-9.11-12.38c-7.59,0-9.58,4.79-9.58,9.69
		c0,5.14,1.52,8.29,8.64,11.33l12.96,5.6c12.61,5.49,15.88,11.91,15.88,22.07c0,17.64-10.74,25.58-28.96,25.58
		c-19.03,0-26.51-8.88-26.51-24.29v-3.39H364.7z"/>
	<polygon class="st0" points="460.57,1.91 460.57,15.69 442.35,15.69 442.35,85.29 425.54,85.29 425.54,15.69 407.32,15.69 
		407.32,1.91 	"/>
	<path class="st0" d="M483.58,1.91v58.16c0,8.29,1.99,14.48,9.81,14.48c7.82,0,9.81-6.19,9.81-14.48V1.91h16.82v58.16
		c0,21.25-12.96,26.86-26.62,26.86c-13.66,0-26.63-4.55-26.63-26.86V1.91H483.58z"/>
	<path class="st0" d="M531.45,1.91h27.56c23.36,0,27.56,16,27.56,40.52c0,29.55-6.31,42.86-28.61,42.86h-26.51V1.91z M548.27,72.91
		h7.47c11.68,0,14.01-7.36,14.01-30.01c0-18.92-1.52-28.61-14.36-28.61h-7.12V72.91z"/>
	<polygon class="st0" points="644.26,1.91 644.26,15.69 614.48,15.69 614.48,35.31 642.51,35.31 642.51,49.09 614.48,49.09 
		614.48,71.51 645.43,71.51 645.43,85.29 597.66,85.29 597.66,1.91 	"/>
	<polygon class="st0" points="673.22,1.91 693.54,59.02 693.77,59.02 693.77,1.91 709.19,1.91 709.19,85.29 690.03,85.29 
		669.48,26.9 669.25,26.9 669.25,85.29 653.83,85.29 653.83,1.91 	"/>
	<polygon class="st0" points="769.67,1.91 769.67,15.69 751.46,15.69 751.46,85.29 734.64,85.29 734.64,15.69 716.42,15.69 
		716.42,1.91 	"/>
	<rect x="777.73" y="1.91" class="st0" width="16.82" height="83.38"/>
	<polygon class="st0" points="1.17,126.17 1.17,97.82 6.88,97.82 6.88,121.48 17,121.48 17,126.17 	"/>
	<path class="st0" d="M25.07,97.82h7.07l7.5,28.34h-5.95l-1.31-5.99h-7.54l-1.31,5.99h-5.95L25.07,97.82z M25.82,115.49h5.56
		l-2.74-12.74h-0.08L25.82,115.49z"/>
	<path class="st0" d="M55.76,117.31v0.83c0,2.66,0.75,4.37,3.77,4.37c1.74,0,3.41-1.11,3.41-3.49c0-2.58-1.31-3.53-5.08-4.84
		c-5.08-1.75-7.42-3.85-7.42-8.57c0-5.52,3.38-8.34,8.77-8.34c5.08,0,8.77,2.18,8.77,7.62v0.79h-5.48c0-2.66-0.91-4.21-3.1-4.21
		c-2.58,0-3.26,1.63-3.26,3.29c0,1.75,0.52,2.82,2.94,3.85l4.41,1.91c4.29,1.87,5.4,4.05,5.4,7.5c0,5.99-3.65,8.69-9.84,8.69
		c-6.47,0-9.01-3.02-9.01-8.26v-1.15H55.76z"/>
	<polygon class="st0" points="88.35,97.82 88.35,102.51 82.16,102.51 82.16,126.17 76.44,126.17 76.44,102.51 70.25,102.51 
		70.25,97.82 	"/>
	<path class="st0" d="M96.18,97.82v19.77c0,2.82,0.67,4.92,3.33,4.92c2.66,0,3.33-2.1,3.33-4.92V97.82h5.72v19.77
		c0,7.22-4.41,9.13-9.05,9.13c-4.64,0-9.05-1.55-9.05-9.13V97.82H96.18z"/>
	<path class="st0" d="M112.45,97.82h9.37c7.94,0,9.37,5.43,9.37,13.77c0,10.04-2.15,14.57-9.72,14.57h-9.01V97.82z M118.17,121.96
		h2.54c3.97,0,4.77-2.5,4.77-10.2c0-6.43-0.52-9.72-4.88-9.72h-2.42V121.96z"/>
	<polygon class="st0" points="150.81,97.82 150.81,102.51 140.68,102.51 140.68,109.18 150.21,109.18 150.21,113.86 140.68,113.86 
		140.68,121.48 151.2,121.48 151.2,126.17 134.97,126.17 134.97,97.82 	"/>
	<polygon class="st0" points="160.66,97.82 167.56,117.23 167.64,117.23 167.64,97.82 172.88,97.82 172.88,126.17 166.37,126.17 
		159.38,106.32 159.31,106.32 159.31,126.17 154.07,126.17 154.07,97.82 	"/>
	<polygon class="st0" points="193.45,97.82 193.45,102.51 187.26,102.51 187.26,126.17 181.54,126.17 181.54,102.51 175.35,102.51 
		175.35,97.82 	"/>
	<path class="st0" d="M200.52,117.31v0.83c0,2.66,0.75,4.37,3.77,4.37c1.74,0,3.41-1.11,3.41-3.49c0-2.58-1.31-3.53-5.08-4.84
		c-5.08-1.75-7.42-3.85-7.42-8.57c0-5.52,3.37-8.34,8.77-8.34c5.08,0,8.77,2.18,8.77,7.62v0.79h-5.48c0-2.66-0.91-4.21-3.1-4.21
		c-2.58,0-3.26,1.63-3.26,3.29c0,1.75,0.52,2.82,2.94,3.85l4.41,1.91c4.29,1.87,5.4,4.05,5.4,7.5c0,5.99-3.65,8.69-9.84,8.69
		c-6.47,0-9.01-3.02-9.01-8.26v-1.15H200.52z"/>
	<path class="st0" d="M222.32,102.98c0,4.21-0.99,7.19-5.24,7.58v-2.78c1.39-0.24,2.06-1.67,2.06-3.13v-0.63h-2.06v-6.19h5.24
		V102.98z"/>
	<path class="st0" d="M241.73,97.82v19.77c0,2.82,0.67,4.92,3.33,4.92c2.66,0,3.33-2.1,3.33-4.92V97.82h5.72v19.77
		c0,7.22-4.41,9.13-9.05,9.13c-4.64,0-9.05-1.55-9.05-9.13V97.82H241.73z"/>
	<polygon class="st0" points="264.32,97.82 271.23,117.23 271.31,117.23 271.31,97.82 276.55,97.82 276.55,126.17 270.04,126.17 
		263.05,106.32 262.97,106.32 262.97,126.17 257.73,126.17 257.73,97.82 	"/>
	<rect x="280.8" y="97.82" class="st0" width="5.72" height="28.34"/>
	<path class="st0" d="M299.82,97.27c8.57,0,9.65,6.11,9.65,14.73c0,8.61-1.07,14.73-9.65,14.73c-8.57,0-9.64-6.11-9.64-14.73
		C290.17,103.38,291.24,97.27,299.82,97.27 M299.82,122.51c3.37,0,3.93-2.9,3.93-10.52c0-7.58-0.56-10.52-3.93-10.52
		c-3.37,0-3.93,2.94-3.93,10.52C295.89,119.62,296.44,122.51,299.82,122.51"/>
	<polygon class="st0" points="319.43,97.82 326.34,117.23 326.42,117.23 326.42,97.82 331.66,97.82 331.66,126.17 325.15,126.17 
		318.16,106.32 318.08,106.32 318.08,126.17 312.84,126.17 312.84,97.82 	"/>
	<path class="st0" d="M345.44,97.82h9.37c7.94,0,9.37,5.43,9.37,13.77c0,10.04-2.15,14.57-9.72,14.57h-9.01V97.82z M351.15,121.96
		h2.54c3.97,0,4.76-2.5,4.76-10.2c0-6.43-0.52-9.72-4.88-9.72h-2.42V121.96z"/>
	<polygon class="st0" points="383.79,97.82 383.79,102.51 373.67,102.51 373.67,109.18 383.19,109.18 383.19,113.86 373.67,113.86 
		373.67,121.48 384.19,121.48 384.19,126.17 367.95,126.17 367.95,97.82 	"/>
	<polygon class="st0" points="387.05,126.17 387.05,97.82 392.77,97.82 392.77,121.48 402.89,121.48 402.89,126.17 	"/>
	<path class="st0" d="M414.96,97.82h10c5.8,0,7.78,4.25,7.78,8.49c0,5.88-3.61,8.54-9.01,8.54h-3.06v11.31h-5.72V97.82z
		 M420.68,110.64h2.54c2.26,0,3.81-1.35,3.81-4.25c0-2.78-1.11-4.36-3.97-4.36h-2.38V110.64z"/>
	<path class="st0" d="M444.62,97.27c8.57,0,9.65,6.11,9.65,14.73c0,8.61-1.07,14.73-9.65,14.73c-8.57,0-9.64-6.11-9.64-14.73
		C434.97,103.38,436.05,97.27,444.62,97.27 M444.62,122.51c3.37,0,3.93-2.9,3.93-10.52c0-7.58-0.56-10.52-3.93-10.52
		c-3.37,0-3.93,2.94-3.93,10.52C440.69,119.62,441.24,122.51,444.62,122.51"/>
	<polygon class="st0" points="457.64,126.17 457.64,97.82 463.36,97.82 463.36,121.48 473.48,121.48 473.48,126.17 	"/>
	<rect x="476.31" y="97.82" class="st0" width="5.72" height="28.34"/>
	<polygon class="st0" points="502.86,97.82 502.86,102.51 496.67,102.51 496.67,126.17 490.95,126.17 490.95,102.51 484.76,102.51 
		484.76,97.82 	"/>
	<polygon class="st0" points="521.17,97.82 521.17,102.51 511.04,102.51 511.04,109.18 520.57,109.18 520.57,113.86 511.04,113.86 
		511.04,121.48 521.56,121.48 521.56,126.17 505.33,126.17 505.33,97.82 	"/>
	<path class="st0" d="M536.53,107.39c0-4.13-0.83-5.91-3.41-5.91c-2.9,0-3.57,2.9-3.57,10.92c0,8.57,1.19,10.12,3.65,10.12
		c2.06,0,3.57-1.07,3.57-7.18h5.72c0,6.11-1.51,11.39-9.01,11.39c-8.57,0-9.64-6.11-9.64-14.73c0-8.61,1.07-14.73,9.64-14.73
		c8.17,0,8.78,5.99,8.78,10.12H536.53z"/>
	<polygon class="st0" points="552.33,97.82 559.24,117.23 559.32,117.23 559.32,97.82 564.56,97.82 564.56,126.17 558.05,126.17 
		551.06,106.32 550.98,106.32 550.98,126.17 545.74,126.17 545.74,97.82 	"/>
	<rect x="568.81" y="97.82" class="st0" width="5.72" height="28.34"/>
	<path class="st0" d="M590.89,107.39c0-4.13-0.83-5.91-3.41-5.91c-2.9,0-3.57,2.9-3.57,10.92c0,8.57,1.19,10.12,3.65,10.12
		c2.06,0,3.57-1.07,3.57-7.18h5.71c0,6.11-1.51,11.39-9.01,11.39c-8.57,0-9.64-6.11-9.64-14.73c0-8.61,1.07-14.73,9.64-14.73
		c8.18,0,8.77,5.99,8.77,10.12H590.89z"/>
	<path class="st0" d="M609.15,97.27c8.57,0,9.65,6.11,9.65,14.73c0,8.61-1.07,14.73-9.65,14.73c-8.57,0-9.64-6.11-9.64-14.73
		C599.5,103.38,600.58,97.27,609.15,97.27 M609.15,122.51c3.37,0,3.93-2.9,3.93-10.52c0-7.58-0.56-10.52-3.93-10.52
		c-3.37,0-3.93,2.94-3.93,10.52C605.22,119.62,605.78,122.51,609.15,122.51"/>
	<path class="st0" d="M631.98,97.82h9.37c7.94,0,9.37,5.43,9.37,13.77c0,10.04-2.15,14.57-9.72,14.57h-9.01V97.82z M637.7,121.96
		h2.54c3.97,0,4.77-2.5,4.77-10.2c0-6.43-0.52-9.72-4.88-9.72h-2.42V121.96z"/>
	<rect x="654.77" y="97.82" class="st0" width="5.72" height="28.34"/>
	<polygon class="st0" points="674.38,97.82 682.88,97.82 686.93,117.83 687.01,117.83 691.1,97.82 699.55,97.82 699.55,126.17 
		694.31,126.17 694.31,103.54 694.23,103.54 689.19,126.17 684.75,126.17 679.7,103.54 679.62,103.54 679.62,126.17 674.38,126.17 	
		"/>
	<rect x="703.92" y="97.82" class="st0" width="5.71" height="28.34"/>
	<polygon class="st0" points="713.89,126.17 713.89,97.82 719.61,97.82 719.61,121.48 729.73,121.48 729.73,126.17 	"/>
	<path class="st0" d="M737.79,97.82h7.07l7.5,28.34h-5.95l-1.31-5.99h-7.54l-1.31,5.99h-5.95L737.79,97.82z M738.54,115.49h5.56
		l-2.74-12.74h-0.08L738.54,115.49z"/>
	<polygon class="st0" points="760.94,97.82 767.84,117.23 767.92,117.23 767.92,97.82 773.16,97.82 773.16,126.17 766.65,126.17 
		759.67,106.32 759.59,106.32 759.59,126.17 754.35,126.17 754.35,97.82 	"/>
	<path class="st0" d="M786.19,97.27c8.57,0,9.65,6.11,9.65,14.73c0,8.61-1.07,14.73-9.65,14.73c-8.57,0-9.64-6.11-9.64-14.73
		C776.54,103.38,777.62,97.27,786.19,97.27 M786.19,122.51c3.37,0,3.93-2.9,3.93-10.52c0-7.58-0.56-10.52-3.93-10.52
		c-3.37,0-3.93,2.94-3.93,10.52C782.26,119.62,782.82,122.51,786.19,122.51"/>
</g>
</svg>
